<svg width="67" height="61" viewBox="0 0 67 61" fill="none" xmlns="http://www.w3.org/2000/svg">
<path d="M26.6663 0.333496C23.1301 0.333496 19.7387 1.73825 17.2382 4.23874C14.7377 6.73922 13.333 10.1306 13.333 13.6668C13.333 17.203 14.7377 20.5944 17.2382 23.0949C19.7387 25.5954 23.1301 27.0002 26.6663 27.0002C30.2025 27.0002 33.5939 25.5954 36.0944 23.0949C38.5949 20.5944 39.9996 17.203 39.9996 13.6668C39.9996 10.1306 38.5949 6.73922 36.0944 4.23874C33.5939 1.73825 30.2025 0.333496 26.6663 0.333496ZM51.6663 30.3335C43.333 30.3335 36.6663 37.0002 36.6663 45.3335C36.6663 53.6668 43.333 60.3335 51.6663 60.3335C59.9996 60.3335 66.6663 53.6668 66.6663 45.3335C66.6663 37.0002 59.9996 30.3335 51.6663 30.3335ZM26.6663 33.6668C11.933 33.6668 -0.000366211 39.6335 -0.000366211 47.0002V53.6668H31.6663C30.5661 51.0263 29.9996 48.1941 29.9996 45.3335C30.0139 41.3812 31.109 37.5081 33.1663 34.1335C31.0663 33.8668 28.933 33.6668 26.6663 33.6668ZM51.6663 35.3335C57.1996 35.3335 61.6663 39.8002 61.6663 45.3335C61.6663 47.2002 61.1663 48.9335 60.2663 50.3335L46.6663 36.7335C48.0663 35.8335 49.7996 35.3335 51.6663 35.3335ZM43.0663 40.3335L56.6663 53.9335C55.2663 54.8335 53.533 55.3335 51.6663 55.3335C46.133 55.3335 41.6663 50.8668 41.6663 45.3335C41.6663 43.4668 42.1663 41.7335 43.0663 40.3335Z" fill="#805AD5"/>
</svg>
