<svg width="80" height="80" viewBox="0 0 80 80" fill="none" xmlns="http://www.w3.org/2000/svg">
<g id="mdi:account-arrow-right">
<path id="Vector" d="M21.25 22.5H26.25V20H21.25V17.5L17.5 21.25L21.25 25V22.5ZM13.75 5C11 5 8.75 7.25 8.75 10C8.75 12.75 11 15 13.75 15C16.5 15 18.75 12.75 18.75 10C18.75 7.25 16.5 5 13.75 5ZM13.75 17.5C8.25 17.5 3.75 19.75 3.75 22.5V25H15.625C15.25 24 15 23 15 21.875C15 20.375 15.375 19 16.125 17.625C15.375 17.625 14.625 17.5 13.75 17.5Z" fill="#805AD5"/>
<path id="Vector_2" d="M60 53.333H46.6667V59.9997H60V66.6663L70 56.6663L60 46.6663V53.333ZM36.6667 13.333C29.3333 13.333 23.3333 19.333 23.3333 26.6663C23.3333 33.9997 29.3333 39.9997 36.6667 39.9997C44 39.9997 50 33.9997 50 26.6663C50 19.333 44 13.333 36.6667 13.333ZM36.6667 46.6663C22 46.6663 10 52.6663 10 59.9997V66.6663H41.6667C40.6667 63.9997 40 61.333 40 58.333C40 54.333 41 50.6663 43 46.9997C41 46.9997 39 46.6663 36.6667 46.6663Z" fill="#805AD5"/>
</g>
</svg>
