<svg width="90" height="90" viewBox="0 0 90 90" fill="none" xmlns="http://www.w3.org/2000/svg">
<g id="mdi:forum">
<path id="Vector" d="M63.75 45V11.25C63.75 10.2554 63.3549 9.30161 62.6516 8.59835C61.9484 7.89509 60.9945 7.5 60 7.5H11.25C10.2554 7.5 9.30158 7.89509 8.59832 8.59835C7.89506 9.30161 7.49997 10.2554 7.49997 11.25V63.75L22.5 48.75H60C60.9945 48.75 61.9484 48.3549 62.6516 47.6516C63.3549 46.9484 63.75 45.9946 63.75 45ZM78.75 22.5H71.25V56.25H22.5V63.75C22.5 64.7446 22.8951 65.6984 23.5983 66.4017C24.3016 67.1049 25.2554 67.5 26.25 67.5H67.5L82.5 82.5V26.25C82.5 25.2554 82.1049 24.3016 81.4016 23.5984C80.6984 22.8951 79.7445 22.5 78.75 22.5Z" fill="#805AD5"/>
</g>
</svg>
