<svg width="80" height="81" viewBox="0 0 80 81" fill="none" xmlns="http://www.w3.org/2000/svg">
<g id="mdi:calendar-heart">
<path id="Vector" d="M63.3333 64.2861V27.6195H16.6667V64.2861H63.3333ZM53.3333 4.28613H60V10.9528H63.3333C65.1014 10.9528 66.7971 11.6552 68.0474 12.9054C69.2976 14.1557 70 15.8514 70 17.6195V64.2861C70 67.9861 67.0333 70.9528 63.3333 70.9528H16.6667C14.8986 70.9528 13.2029 70.2504 11.9526 69.0002C10.7024 67.7499 10 66.0542 10 64.2861V17.6195C10 13.9528 13 10.9528 16.6667 10.9528H20V4.28613H26.6667V10.9528H53.3333V4.28613ZM40 58.1861L38.0667 56.4195C31.2 50.1861 26.6667 46.0861 26.6667 41.0528C26.6667 36.9528 29.9 33.7195 34 33.7195C36.3333 33.7195 38.5333 34.7861 40 36.4861C41.4667 34.7861 43.6667 33.7195 46 33.7195C50.1 33.7195 53.3333 36.9528 53.3333 41.0528C53.3333 46.0861 48.8 50.1861 41.9333 56.4195L40 58.1861Z" fill="#805AD5"/>
</g>
</svg>
