<svg width="80" height="80" viewBox="0 0 80 80" fill="none" xmlns="http://www.w3.org/2000/svg">
<g id="mdi:minus-circle">
<path id="Vector" d="M56.667 43.3337H23.3337V36.667H56.667M40.0003 6.66699C35.6229 6.66699 31.2884 7.52918 27.2442 9.20434C23.2 10.8795 19.5254 13.3348 16.4301 16.4301C10.1789 22.6813 6.66699 31.1598 6.66699 40.0003C6.66699 48.8409 10.1789 57.3193 16.4301 63.5705C19.5254 66.6658 23.2 69.1212 27.2442 70.7963C31.2884 72.4715 35.6229 73.3337 40.0003 73.3337C48.8409 73.3337 57.3193 69.8218 63.5705 63.5705C69.8218 57.3193 73.3337 48.8409 73.3337 40.0003C73.3337 35.6229 72.4715 31.2884 70.7963 27.2442C69.1212 23.2 66.6658 19.5254 63.5705 16.4301C60.4753 13.3348 56.8006 10.8795 52.7564 9.20434C48.7123 7.52918 44.3777 6.66699 40.0003 6.66699Z" fill="#805AD5"/>
</g>
</svg>
