<svg width="80" height="80" viewBox="0 0 80 80" fill="none" xmlns="http://www.w3.org/2000/svg">
<g id="mdi:account-edit">
<path id="Vector" d="M72.3335 44.4997L69.0002 47.833L62.1668 40.9997L65.5002 37.6663C65.8429 37.3304 66.3036 37.1423 66.7835 37.1423C67.2634 37.1423 67.7241 37.3304 68.0668 37.6663L72.3335 41.933C73.0335 42.633 73.0335 43.7997 72.3335 44.4997ZM40.0002 63.133L60.2002 42.933L67.0335 49.7663L46.8668 69.9997H40.0002V63.133ZM40.0002 46.6663C25.2668 46.6663 13.3335 52.633 13.3335 59.9997V66.6663H33.3335V60.3663L46.6668 47.033C44.4668 46.7663 42.2335 46.6663 40.0002 46.6663ZM40.0002 13.333C36.4639 13.333 33.0726 14.7378 30.5721 17.2383C28.0716 19.7387 26.6668 23.1301 26.6668 26.6663C26.6668 30.2026 28.0716 33.5939 30.5721 36.0944C33.0726 38.5949 36.4639 39.9997 40.0002 39.9997C43.5364 39.9997 46.9278 38.5949 49.4283 36.0944C51.9287 33.5939 53.3335 30.2026 53.3335 26.6663C53.3335 23.1301 51.9287 19.7387 49.4283 17.2383C46.9278 14.7378 43.5364 13.333 40.0002 13.333Z" fill="#805AD5"/>
</g>
</svg>
