<svg width="80" height="80" viewBox="0 0 80 80" fill="none" xmlns="http://www.w3.org/2000/svg">
<g id="mdi:account-star">
<path id="Vector" d="M50 46.6668C41.1 46.6668 23.3334 51.1002 23.3334 60.0002V66.6668H76.6667V60.0002C76.6667 51.1002 58.9 46.6668 50 46.6668ZM50 40.0002C53.5363 40.0002 56.9276 38.5954 59.4281 36.0949C61.9286 33.5944 63.3334 30.203 63.3334 26.6668C63.3334 23.1306 61.9286 19.7392 59.4281 17.2387C56.9276 14.7383 53.5363 13.3335 50 13.3335C46.4638 13.3335 43.0724 14.7383 40.572 17.2387C38.0715 19.7392 36.6667 23.1306 36.6667 26.6668C36.6667 30.203 38.0715 33.5944 40.572 36.0949C43.0724 38.5954 46.4638 40.0002 50 40.0002ZM16.6667 44.2668L24.8334 49.2335L22.6667 39.8668L30 33.6002L20.3667 32.7668L16.6667 23.9668L12.9 32.7668L3.33337 33.6002L10.6 39.8668L8.33337 49.2335L16.6667 44.2668Z" fill="#805AD5"/>
</g>
</svg>
