<svg width="90" height="66" viewBox="0 0 90 66" fill="none" xmlns="http://www.w3.org/2000/svg">
<path id="Vector" d="M28.6364 0C23.2115 0 18.0088 2.15503 14.1728 5.991C10.3368 9.82697 8.18182 15.0297 8.18182 20.4545V57.2727H0V65.4545H81.8182C83.9881 65.4545 86.0692 64.5925 87.6036 63.0581C89.138 61.5238 90 59.4427 90 57.2727V20.4545C90 17.7684 89.4709 15.1086 88.443 12.6269C87.4151 10.1453 85.9084 7.89038 84.009 5.991C82.1096 4.09162 79.8547 2.58495 77.3731 1.55701C74.8914 0.529073 72.2316 0 69.5455 0H28.6364ZM28.6364 8.18182C31.8913 8.18182 35.0129 9.47483 37.3145 11.7764C39.6161 14.078 40.9091 17.1996 40.9091 20.4545V57.2727H16.3636V20.4545C16.3636 17.1996 17.6567 14.078 19.9582 11.7764C22.2598 9.47483 25.3814 8.18182 28.6364 8.18182ZM49.0909 36.8182V12.2727H65.4545V20.4545H57.2727V36.8182H49.0909Z" fill="#805AD5"/>
</svg>
